<!-- Generated by IcoMoon.io -->
<svg version="1.1" xmlns="http://www.w3.org/2000/svg" width="768" height="800" viewBox="0 0 768 800">
<g id="icomoon-ignore">
</g>
<path d="M552.752 130l-168.75 168.75-168.75-168.75-101.25 101.25 168.75 168.75-168.75 168.75 101.25 101.25 168.75-168.75 168.75 168.75 101.25-101.25-168.75-168.75 168.75-168.75z"></path>
<path d="M384.002 21c-209.315 0-379 169.685-379 379s169.685 379 379 379 379-169.685 379-379-169.685-379-379-379zM384.002 707.938c-170.068 0-307.938-137.87-307.938-307.938s137.87-307.938 307.938-307.938 307.938 137.87 307.938 307.938-137.87 307.938-307.938 307.938z"></path>
</svg>
