<svg aria-hidden="true" style="position: absolute; width: 0; height: 0; overflow: hidden;" version="1.1" xmlns="http://www.w3.org/2000/svg" xmlns:xlink="http://www.w3.org/1999/xlink">
<defs>
<symbol id="icon-errorcancel-circle" viewBox="0 0 32 32">
<path d="M16 32c8.837 0 16-7.163 16-16s-7.163-16-16-16-16 7.163-16 16 7.163 16 16 16zM16 3c7.18 0 13 5.82 13 13s-5.82 13-13 13-13-5.82-13-13 5.82-13 13-13z"></path>
<path d="M7.875 29l8.125-8.125 8.125 8.125 4.875-4.875-8.125-8.125 8.125-8.125-4.875-4.875-8.125 8.125-8.125-8.125-4.875 4.875 8.125 8.125-8.125 8.125z"></path>
</symbol>
</defs>
</svg>
